<?xml version="1.0" encoding="utf-8"?>
<!-- Generator: Adobe Illustrator 27.5.0, SVG Export Plug-In . SVG Version: 6.00 Build 0)  -->
<svg version="1.1" xmlns="http://www.w3.org/2000/svg" xmlns:xlink="http://www.w3.org/1999/xlink" x="0px" y="0px"
	 viewBox="0 0 500 500" style="enable-background:new 0 0 500 500;" xml:space="preserve">
<g id="Background_Simple">
	<g>
		<path style="fill:#C6FF00;" d="M402.724,164.783c-6.042-4.908-12.44-9.405-18.46-14.344
			c-28.429-23.324-44.616-57.862-77.152-76.444c-34.605-19.764-79.466-20.185-114.895-1.298
			c-39.41,21.009-52.754,66.905-84.663,96.591c-49.44,45.997-66.461,97.743-43.767,142.919
			c16.465,32.777,59.75,52.869,91.855,65.256c39.877,15.385,79.943,45.131,123.19,48.853c36.851,3.171,74.002-14.591,91.324-48.399
			c9.836-19.197,27.755-31.622,42.578-46.497c39.033-39.171,37.688-113.78,2.408-154.851
			C411.386,172.195,407.15,168.379,402.724,164.783z"/>
		<path style="opacity:0.7;fill:#FFFFFF;" d="M402.724,164.783c-6.042-4.908-12.44-9.405-18.46-14.344
			c-28.429-23.324-44.616-57.862-77.152-76.444c-34.605-19.764-79.466-20.185-114.895-1.298
			c-39.41,21.009-52.754,66.905-84.663,96.591c-49.44,45.997-66.461,97.743-43.767,142.919
			c16.465,32.777,59.75,52.869,91.855,65.256c39.877,15.385,79.943,45.131,123.19,48.853c36.851,3.171,74.002-14.591,91.324-48.399
			c9.836-19.197,27.755-31.622,42.578-46.497c39.033-39.171,37.688-113.78,2.408-154.851
			C411.386,172.195,407.15,168.379,402.724,164.783z"/>
	</g>
</g>
<g id="Device">
	<g>
		<path style="opacity:0.1;" d="M201.794,399.232l-61.752-271.093c-9.761,14.556-19.613,29.172-32.488,41.15
			c-49.44,45.997-66.461,97.743-43.767,142.919c16.465,32.777,59.75,52.869,91.856,65.256
			C170.942,383.366,186.27,391.382,201.794,399.232z"/>
		<g>
			<g>
				
					<path id="XMLID_14_" style="fill:#263238;stroke:#263238;stroke-linecap:round;stroke-linejoin:round;stroke-miterlimit:10;" d="
					M278.27,384.094l-121.868,10.092c-3.508,0.291-6.993-2.63-7.784-6.522L96.778,132.609c-0.791-3.893-2.385-11.209,11.769-11.889
					l123.259-9.528c3.508-0.291,6.993,2.63,7.784,6.522l52.622,255.484C292.976,376.627,289.141,383.82,278.27,384.094z"/>
				
					<path id="XMLID_13_" style="fill:#FFFFFF;stroke:#263238;stroke-linecap:round;stroke-linejoin:round;stroke-miterlimit:10;" d="
					M287.603,379.427L165.735,389.52c-3.508,0.29-6.992-2.63-7.784-6.522l-51.839-255.055c-0.791-3.893,1.411-7.284,4.919-7.575
					l121.868-10.092c3.508-0.291,6.993,2.63,7.784,6.522l51.839,255.055C293.313,375.745,291.111,379.137,287.603,379.427z"/>
				<path style="fill:#263238;" d="M184.535,130.628l-16.752,1.387c-0.949,0.079-1.892-0.711-2.106-1.764l0,0
					c-0.214-1.053,0.382-1.971,1.331-2.049l16.752-1.387c0.949-0.079,1.892,0.711,2.106,1.764l0,0
					C186.08,129.632,185.484,130.549,184.535,130.628z"/>
				
					<path id="XMLID_12_" style="fill:#C6FF00;stroke:#263238;stroke-linecap:round;stroke-linejoin:round;stroke-miterlimit:10;" d="
					M280.56,355.547l-117.562,9.736l-46.502-228.796l27.865-2.308l3.722,2.627c1.3,0.918,2.791,1.356,4.215,1.238l49.165-4.072
					c1.483-0.123,2.793-0.84,3.686-2.019l2.272-2.997l26.638-2.206L280.56,355.547z"/>
				<path style="fill:#263238;" d="M226.967,367.155c-0.333-1.637-1.799-2.866-3.274-2.744c-1.475,0.122-2.402,1.549-2.069,3.186
					c0.333,1.638,1.799,2.866,3.274,2.744C226.374,370.219,227.3,368.793,226.967,367.155z"/>
			</g>
			<g>
				<g>
					<path style="fill:#FFFFFF;stroke:#FFFFFF;stroke-miterlimit:10;" d="M150.921,185.553l-12.562,1.04
						c-1.908,0.158-3.803-1.43-4.234-3.548l-2.833-13.94c-0.43-2.117,0.767-3.962,2.675-4.12l12.562-1.04
						c1.908-0.158,3.803,1.43,4.234,3.548l2.833,13.941C154.026,183.55,152.829,185.395,150.921,185.553z"/>
					<path style="fill:#FFFFFF;stroke:#FFFFFF;stroke-miterlimit:10;" d="M178.981,183.229l-12.561,1.04
						c-1.908,0.158-3.803-1.43-4.234-3.548l-2.833-13.941c-0.43-2.117,0.767-3.962,2.675-4.12l12.562-1.04
						c1.908-0.158,3.803,1.43,4.234,3.548l2.833,13.941C182.087,181.227,180.889,183.071,178.981,183.229z"/>
					<path style="fill:#FFFFFF;stroke:#FFFFFF;stroke-miterlimit:10;" d="M207.041,180.905l-12.562,1.04
						c-1.908,0.158-3.803-1.43-4.234-3.548l-2.833-13.941c-0.43-2.117,0.767-3.962,2.675-4.12l12.562-1.04
						c1.908-0.158,3.803,1.43,4.234,3.548l2.833,13.941C210.147,178.903,208.949,180.747,207.041,180.905z"/>
					<path style="fill:#FFFFFF;stroke:#FFFFFF;stroke-miterlimit:10;" d="M235.102,178.581l-12.561,1.04
						c-1.908,0.158-3.803-1.43-4.234-3.548l-2.833-13.941c-0.43-2.117,0.767-3.962,2.675-4.12l12.562-1.04
						c1.908-0.158,3.803,1.43,4.234,3.548l2.833,13.941C238.207,176.579,237.009,178.423,235.102,178.581z"/>
				</g>
				<g>
					<path style="fill:#FFFFFF;stroke:#FFFFFF;stroke-miterlimit:10;" d="M157.438,217.616l-12.562,1.04
						c-1.908,0.158-3.803-1.43-4.234-3.548l-2.833-13.941c-0.43-2.117,0.767-3.962,2.675-4.12l12.562-1.04
						c1.908-0.158,3.803,1.43,4.234,3.548l2.833,13.941C160.543,215.614,159.345,217.458,157.438,217.616z"/>
					<path style="fill:#FFFFFF;stroke:#FFFFFF;stroke-miterlimit:10;" d="M185.498,215.292l-12.561,1.04
						c-1.908,0.158-3.803-1.43-4.234-3.548l-2.833-13.941c-0.43-2.117,0.767-3.962,2.675-4.12l12.562-1.04
						c1.908-0.158,3.803,1.43,4.234,3.548l2.833,13.941C188.604,213.29,187.406,215.134,185.498,215.292z"/>
					<path style="fill:#FFFFFF;stroke:#FFFFFF;stroke-miterlimit:10;" d="M241.618,210.645l-12.561,1.04
						c-1.908,0.158-3.803-1.43-4.234-3.548l-2.833-13.941c-0.43-2.117,0.767-3.962,2.675-4.12l12.562-1.04
						c1.908-0.158,3.803,1.43,4.234,3.548l2.833,13.941C244.724,208.642,243.526,210.487,241.618,210.645z"/>
				</g>
				<g>
					<path style="fill:#FFFFFF;stroke:#FFFFFF;stroke-miterlimit:10;" d="M163.954,249.68l-12.561,1.04
						c-1.908,0.158-3.803-1.43-4.234-3.548l-2.833-13.941c-0.43-2.117,0.767-3.962,2.675-4.12l12.562-1.04
						c1.908-0.158,3.803,1.43,4.234,3.548l2.833,13.941C167.06,247.677,165.862,249.521,163.954,249.68z"/>
					<path style="fill:#FFFFFF;stroke:#FFFFFF;stroke-miterlimit:10;" d="M192.015,247.356l-12.561,1.04
						c-1.908,0.158-3.803-1.43-4.234-3.548l-2.833-13.941c-0.43-2.117,0.767-3.962,2.675-4.12l12.562-1.04
						c1.908-0.158,3.803,1.43,4.234,3.548l2.833,13.941C195.12,245.353,193.923,247.198,192.015,247.356z"/>
					<path style="fill:#FFFFFF;stroke:#FFFFFF;stroke-miterlimit:10;" d="M220.075,245.032l-12.562,1.04
						c-1.908,0.158-3.803-1.43-4.234-3.548l-2.833-13.941c-0.43-2.117,0.767-3.962,2.675-4.12l12.562-1.04
						c1.908-0.158,3.803,1.43,4.234,3.548l2.833,13.941C223.181,243.029,221.983,244.874,220.075,245.032z"/>
					<path style="fill:#FFFFFF;stroke:#FFFFFF;stroke-miterlimit:10;" d="M248.135,242.708l-12.561,1.04
						c-1.908,0.158-3.803-1.43-4.234-3.548l-2.833-13.941c-0.43-2.117,0.767-3.962,2.675-4.12l12.562-1.04
						c1.908-0.158,3.803,1.43,4.234,3.548l2.833,13.941C251.241,240.706,250.043,242.55,248.135,242.708z"/>
				</g>
				<g>
					<path style="fill:#FFFFFF;stroke:#FFFFFF;stroke-miterlimit:10;" d="M170.471,281.743l-12.562,1.04
						c-1.908,0.158-3.803-1.43-4.234-3.548l-2.833-13.941c-0.43-2.117,0.767-3.962,2.675-4.12l12.562-1.04
						c1.908-0.158,3.803,1.43,4.234,3.548l2.833,13.941C173.577,279.74,172.379,281.585,170.471,281.743z"/>
					<path style="fill:#FFFFFF;stroke:#FFFFFF;stroke-miterlimit:10;" d="M198.531,279.419l-12.561,1.04
						c-1.908,0.158-3.803-1.43-4.234-3.548l-2.833-13.941c-0.43-2.117,0.767-3.962,2.675-4.12l12.562-1.04
						c1.908-0.158,3.803,1.43,4.234,3.548l2.833,13.941C201.637,277.417,200.439,279.261,198.531,279.419z"/>
					<path style="fill:#FFFFFF;stroke:#FFFFFF;stroke-miterlimit:10;" d="M226.592,277.095l-12.562,1.04
						c-1.908,0.158-3.803-1.43-4.234-3.548l-2.833-13.941c-0.43-2.117,0.767-3.962,2.675-4.12l12.562-1.04
						c1.908-0.158,3.803,1.43,4.234,3.548l2.833,13.941C229.697,275.093,228.5,276.937,226.592,277.095z"/>
					<path style="fill:#FFFFFF;stroke:#FFFFFF;stroke-miterlimit:10;" d="M254.652,274.771l-12.561,1.04
						c-1.908,0.158-3.803-1.43-4.234-3.548l-2.833-13.94c-0.43-2.117,0.767-3.962,2.675-4.12l12.562-1.04
						c1.908-0.158,3.803,1.43,4.234,3.548l2.833,13.941C257.758,272.769,256.56,274.613,254.652,274.771z"/>
				</g>
				<g>
					<path style="fill:#FFFFFF;stroke:#FFFFFF;stroke-miterlimit:10;" d="M176.988,313.806l-12.562,1.04
						c-1.908,0.158-3.803-1.43-4.234-3.548l-2.833-13.94c-0.43-2.117,0.767-3.962,2.675-4.12l12.562-1.04
						c1.908-0.158,3.803,1.43,4.234,3.548l2.833,13.941C180.094,311.804,178.896,313.648,176.988,313.806z"/>
					<path style="fill:#FFFFFF;stroke:#FFFFFF;stroke-miterlimit:10;" d="M205.048,311.482l-12.561,1.04
						c-1.908,0.158-3.803-1.43-4.234-3.548l-2.833-13.941c-0.43-2.117,0.767-3.962,2.675-4.12l12.562-1.04
						c1.908-0.158,3.803,1.43,4.234,3.547l2.833,13.941C208.154,309.48,206.956,311.324,205.048,311.482z"/>
					<path style="fill:#FFFFFF;stroke:#FFFFFF;stroke-miterlimit:10;" d="M233.109,309.159l-12.562,1.04
						c-1.908,0.158-3.803-1.43-4.234-3.548l-2.833-13.941c-0.43-2.117,0.767-3.962,2.675-4.12l12.562-1.04
						c1.908-0.158,3.803,1.43,4.234,3.548l2.833,13.94C236.214,307.156,235.016,309.001,233.109,309.159z"/>
					<path style="fill:#FFFFFF;stroke:#FFFFFF;stroke-miterlimit:10;" d="M261.169,306.835l-12.561,1.04
						c-1.908,0.158-3.803-1.43-4.234-3.548l-2.833-13.941c-0.43-2.117,0.767-3.962,2.675-4.12l12.562-1.04
						c1.908-0.158,3.803,1.43,4.234,3.548l2.833,13.941C264.274,304.832,263.077,306.677,261.169,306.835z"/>
				</g>
				<g>
					<path style="fill:#263238;" d="M183.505,345.87l-12.562,1.04c-1.908,0.158-3.803-1.43-4.234-3.548l-2.833-13.941
						c-0.43-2.117,0.767-3.962,2.675-4.12l12.562-1.04c1.908-0.158,3.803,1.43,4.234,3.548l2.833,13.941
						C186.61,343.867,185.413,345.711,183.505,345.87z"/>
					<path style="fill:#263238;" d="M211.565,343.546l-12.561,1.04c-1.908,0.158-3.803-1.43-4.234-3.548l-2.833-13.941
						c-0.43-2.117,0.767-3.962,2.675-4.12l12.562-1.04c1.908-0.158,3.803,1.43,4.234,3.548l2.833,13.941
						C214.671,341.543,213.473,343.388,211.565,343.546z"/>
					<path style="fill:#263238;" d="M239.625,341.222l-12.562,1.04c-1.908,0.158-3.803-1.43-4.234-3.548l-2.833-13.941
						c-0.43-2.117,0.767-3.962,2.675-4.12l12.562-1.04c1.908-0.158,3.803,1.43,4.234,3.548l2.833,13.941
						C242.731,339.22,241.533,341.064,239.625,341.222z"/>
					<path style="fill:#263238;" d="M267.686,338.898l-12.562,1.04c-1.908,0.158-3.803-1.43-4.234-3.548l-2.833-13.941
						c-0.43-2.117,0.767-3.962,2.675-4.12l12.562-1.04c1.908-0.158,3.803,1.43,4.234,3.548l2.833,13.941
						C270.791,336.896,269.593,338.74,267.686,338.898z"/>
				</g>
			</g>
			<g>
				<path style="fill:none;stroke:#263238;stroke-width:0.25;stroke-miterlimit:10;" d="M222.303,223.578l-25.52,2.113
					c-3.876,0.321-7.727-2.906-8.601-7.207l-5.757-28.322c-0.874-4.301,1.559-8.049,5.435-8.37l25.521-2.113
					c3.876-0.321,7.727,2.906,8.601,7.207l5.757,28.322C228.612,219.51,226.179,223.257,222.303,223.578z"/>
				<path style="fill:none;stroke:#263238;stroke-width:0.5;stroke-miterlimit:10;" d="M219.774,220.51l-21.773,1.803
					c-3.307,0.274-6.592-2.479-7.338-6.149L185.752,192c-0.746-3.67,1.33-6.867,4.637-7.141l21.773-1.803
					c3.307-0.274,6.592,2.479,7.338,6.149l4.911,24.164C225.157,217.039,223.081,220.236,219.774,220.51z"/>
				<path style="fill:none;stroke:#263238;stroke-width:0.75;stroke-miterlimit:10;" d="M216.436,216.46l-16.826,1.393
					c-2.555,0.212-5.094-1.916-5.671-4.752l-3.795-18.673c-0.576-2.836,1.028-5.307,3.583-5.518l16.826-1.393
					c2.555-0.212,5.094,1.916,5.671,4.752l3.795,18.673C220.596,213.777,218.991,216.248,216.436,216.46z"/>
				<path style="fill:#263238;" d="M213.558,212.969l-12.562,1.04c-1.908,0.158-3.803-1.43-4.234-3.548l-2.833-13.941
					c-0.43-2.117,0.767-3.962,2.675-4.12l12.562-1.04c1.908-0.158,3.803,1.43,4.234,3.548l2.833,13.941
					C216.664,210.966,215.466,212.811,213.558,212.969z"/>
			</g>
		</g>
	</g>
</g>
<g id="Character">
	<g>
		<path style="opacity:0.1;" d="M402.724,164.783c-3.973-3.228-8.095-6.283-12.167-9.397l-86.628,13.067l6.889,32.147l55.875,53.578
			l-19.135,59.702l39.054,42.125c8.348-8.525,17.731-16.163,26.123-24.585c39.033-39.171,37.688-113.78,2.408-154.851
			C411.386,172.195,407.15,168.379,402.724,164.783z"/>
		<g>
			<path style="fill:#FFFFFF;stroke:#263238;stroke-linecap:round;stroke-linejoin:round;stroke-miterlimit:10;" d="
				M283.699,215.177c0,0-45.924-10.663-48.496-11.227s-13.206-3.684-15.69-3.579c-2.483,0.105-11.405,1.297-13.1,2.205
				c-1.695,0.908-1.13,1.74-0.237,1.621c0.892-0.119,9.368-1.252,9.368-1.252l4.908,2.75c0,0-3.028,2.962-3.196,4.968
				c-0.418,5.016-0.31,6.171,0.805,6.022c1.115-0.149,1.262-5.845,1.262-5.845l0.833-0.565l0.789,4.208c0,0,1.083,1.455,1.691-0.194
				c0.423-1.147-0.413-3.836-0.413-3.836l1.635-1.354c0,0,0.417,3.492,1.206,3.925c0.652,0.358,1.225,0.001,1.135-0.668
				c-0.089-0.669-0.483-3.261-0.483-3.261l2.9-1.767c0,0,46.67,19.645,51.533,20.357c4.863,0.712,9.904-0.643,9.904-0.643
				L283.699,215.177z"/>
			<path style="fill:#FFFFFF;stroke:#263238;stroke-linecap:round;stroke-linejoin:round;stroke-miterlimit:10;" d="M417.97,241.843
				c0,0-3.121,4.957-2.311,5.353c0.81,0.396,4.063-3.57,4.063-3.57l-1.601,5.006c0,0-0.115,1.024,1.735-0.232
				c1.85-1.256,1.419-4.477,1.419-4.477l0.2,5.27c0,0-1.255,1.933,0.48,1.701c1.734-0.232,1.948-4.296,1.783-5.535
				c-0.166-1.239-1.141-2.874-2.05-4.014C420.778,240.207,418.3,240.538,417.97,241.843z"/>
			<g>
				<defs>
					<path id="XMLID_11_" d="M383.416,200.261c0,0,5.68,1.05,8.671,2.668c2.991,1.618,25.896,25.797,26.508,28.49
						c0.612,2.693,2.348,6.244,3.571,7.846c1.223,1.602,5.14,6.375,5.405,8.358c0.265,1.982-0.528,3.602-1.47,2.214
						c-0.942-1.387-3.14-4.625-4.826-5.913c-1.686-1.288-6.873-2.36-6.873-2.36s0.083,2.511-0.362,4.841
						c-0.445,2.329-2.196,4.329-2.362,3.09c-0.166-1.239-0.563-4.213-0.365-6.509c0.198-2.296,0.163-6.327,0.163-6.327l0.676-4.378
						c0,0-15.152-9.577-20.853-12.599c-5.7-3.021-10.939-6.357-10.939-6.357l-3.569-0.28c0,0,0.163-6.327,2.343-8.889
						C381.315,201.594,383.416,200.261,383.416,200.261z"/>
				</defs>
				<use xlink:href="#XMLID_11_"  style="overflow:visible;fill:#FFFFFF;"/>
				<clipPath id="XMLID_00000172425838722547519220000010921615897879152771_">
					<use xlink:href="#XMLID_11_"  style="overflow:visible;"/>
				</clipPath>
				<path style="clip-path:url(#XMLID_00000172425838722547519220000010921615897879152771_);fill:#C6FF00;" d="M418.594,231.419
					c-0.612-2.693-23.517-26.872-26.508-28.49s-8.671-2.668-8.671-2.668s-2.101,1.333-4.281,3.894
					c-2.18,2.561-2.343,8.889-2.343,8.889l3.568,0.28c0,0,0.68,0.432,1.803,1.12l2.623-7.579c0,0,25.472,19.104,28.019,21.333
					c2.547,2.229,5.288,6.127,7.323,8.597c0.322,0.391,0.774,0.853,1.291,1.348C420.32,236.327,419.09,233.599,418.594,231.419z"/>
				<path style="opacity:0.5;clip-path:url(#XMLID_00000172425838722547519220000010921615897879152771_);fill:#FFFFFF;" d="
					M418.594,231.419c-0.612-2.693-23.517-26.872-26.508-28.49s-8.671-2.668-8.671-2.668s-2.101,1.333-4.281,3.894
					c-2.18,2.561-2.343,8.889-2.343,8.889l3.568,0.28c0,0,0.68,0.432,1.803,1.12l2.623-7.579c0,0,25.472,19.104,28.019,21.333
					c2.547,2.229,5.288,6.127,7.323,8.597c0.322,0.391,0.774,0.853,1.291,1.348C420.32,236.327,419.09,233.599,418.594,231.419z"/>
				
					<use xlink:href="#XMLID_11_"  style="overflow:visible;fill:none;stroke:#263238;stroke-linecap:round;stroke-linejoin:round;stroke-miterlimit:10;"/>
			</g>
			<path style="fill:#263238;stroke:#263238;stroke-linecap:round;stroke-linejoin:round;stroke-miterlimit:10;" d="
				M347.154,264.927l0.945,12.737c0,0-4.728,41.996,4.708,54.103c9.437,12.107,39.91,43.85,39.91,43.85l4.789-5.685
				c0,0-17.026-33.036-20.167-37.66c-3.14-4.625-8.332-17.047-8.332-17.047s10.543-43.782,11.285-47.665
				c0.742-3.882,0.343-14.422,0.21-15.414c-0.132-0.991-11.959,4.877-18.947,7.324C354.57,261.918,347.154,264.927,347.154,264.927z
				"/>
			<g>
				<path style="fill:#263238;stroke:#263238;stroke-linecap:round;stroke-linejoin:round;stroke-miterlimit:10;" d="
					M365.228,268.061c0,0-3.286,3.718-2.41,4.61c0.876,0.892,0.876,0.892,0.876,0.892s-18.462,24.159-20.889,30.536
					c-2.427,6.378-7.196,21.644-7.097,22.387c0.099,0.743,3.222,3.353,5.238,3.336c2.016-0.017,64.382,4.259,64.382,4.259
					l1.435-6.245l-45.304-14.375c0,0,27.23-39.707,28.501-43.408c1.271-3.701-0.352-15.843-0.584-17.578
					c-0.232-1.735-2.578-4.195-4.561-3.93c-1.982,0.265-19.028,12.38-19.028,12.38"/>
				<path style="fill:none;stroke:#FFFFFF;stroke-linecap:round;stroke-linejoin:round;stroke-miterlimit:10;" d="M347.335,295.135
					l15.938-23.717c0,0,2.882-7.359,12.56-9.273"/>
				<path style="fill:none;stroke:#FFFFFF;stroke-linecap:round;stroke-linejoin:round;stroke-miterlimit:10;" d="M365.127,264.602
					c0,0,12.442-9.113,19.478-7.57"/>
				
					<line style="fill:none;stroke:#FFFFFF;stroke-linecap:round;stroke-linejoin:round;stroke-miterlimit:10;" x1="350.84" y1="321.365" x2="371.248" y2="297.527"/>
				
					<line style="fill:none;stroke:#FFFFFF;stroke-linecap:round;stroke-linejoin:round;stroke-miterlimit:10;" x1="358.526" y1="313.113" x2="365.177" y2="314.708"/>
			</g>
			<g>
				<g>
					<defs>
						<path id="XMLID_10_" d="M313.72,207.078c-13.501,4.302-12.832,4.212-12.832,4.212l-19.599,2.846l8.66,17.232l22.827,2.625
							c0,0,22.342,21.08,26.536,21.881c4.194,0.802,6.664,5.693,6.664,5.693s-1.65,2.945,0.566,4.238
							c2.216,1.293,5.428,1.545,12.224-0.271c6.795-1.816,16.489-7.426,21.009-10.981c4.52-3.555,10.987-7.825,8.934-9.594
							c-2.053-1.769-6.083-3.047-6.083-3.047l-20.84-21.734l17.206,1.333c0,0-0.196-9.963,0.055-13.175
							c0.252-3.212,4.37-8.076,4.37-8.076s-22.009-1.599-28.27-2.579c-6.261-0.98-12.343-0.621-14.9,0.629
							c-2.557,1.25-14.17,4.391-14.84,4.48C324.738,202.881,313.72,207.078,313.72,207.078z"/>
					</defs>
					<use xlink:href="#XMLID_10_"  style="overflow:visible;fill:#FFFFFF;"/>
					<clipPath id="XMLID_00000079452451379525503370000004927943040378021796_">
						<use xlink:href="#XMLID_10_"  style="overflow:visible;"/>
					</clipPath>
					<path style="clip-path:url(#XMLID_00000079452451379525503370000004927943040378021796_);fill:#C6FF00;" d="M355.146,197.682
						c-6.261-0.98-12.343-0.621-14.9,0.629c-2.557,1.25-14.17,4.391-14.84,4.481c-0.124,0.017-0.603,0.174-1.299,0.419l2.265,6.448
						l6.197-1.839c0,0,12.736-2.866,18.467-2.866s27.701,1.91,27.701,1.91l0.696-0.155c1.074-3.006,3.983-6.449,3.983-6.449
						S361.407,198.662,355.146,197.682z"/>
					<path style="opacity:0.5;clip-path:url(#XMLID_00000079452451379525503370000004927943040378021796_);fill:#FFFFFF;" d="
						M355.146,197.682c-6.261-0.98-12.343-0.621-14.9,0.629c-2.557,1.25-14.17,4.391-14.84,4.481
						c-0.124,0.017-0.603,0.174-1.299,0.419l2.265,6.448l6.197-1.839c0,0,12.736-2.866,18.467-2.866s27.701,1.91,27.701,1.91
						l0.696-0.155c1.074-3.006,3.983-6.449,3.983-6.449S361.407,198.662,355.146,197.682z"/>
					<path style="clip-path:url(#XMLID_00000079452451379525503370000004927943040378021796_);fill:#C6FF00;" d="M388.709,244.96
						c-2.053-1.769-6.083-3.047-6.083-3.047l-19.67-20.514l-5.199-1.733l-18.333,3l32.161,12.268
						c-0.584,0.114-1.853,0.406-4.494,1.066c-6.667,1.667-27.333,0-27.333,0s15.667,6.333,23.667,9.333c8,3,11,2.333,6.333,4.667
						c-4.667,2.333-10.333,3.667-26,2.333c-4.082-0.348-7.867-0.649-11.237-0.906c3.081,2.45,5.632,4.227,6.792,4.448
						c4.194,0.802,6.664,5.693,6.664,5.693s-1.65,2.945,0.566,4.238c2.216,1.293,5.428,1.545,12.224-0.271
						c6.795-1.816,16.489-7.426,21.009-10.981C384.294,250.999,390.762,246.729,388.709,244.96z"/>
					<path style="opacity:0.5;clip-path:url(#XMLID_00000079452451379525503370000004927943040378021796_);fill:#FFFFFF;" d="
						M388.709,244.96c-2.053-1.769-6.083-3.047-6.083-3.047l-19.67-20.514l-5.199-1.733l-18.333,3l32.161,12.268
						c-0.584,0.114-1.853,0.406-4.494,1.066c-6.667,1.667-27.333,0-27.333,0s15.667,6.333,23.667,9.333c8,3,11,2.333,6.333,4.667
						c-4.667,2.333-10.333,3.667-26,2.333c-4.082-0.348-7.867-0.649-11.237-0.906c3.081,2.45,5.632,4.227,6.792,4.448
						c4.194,0.802,6.664,5.693,6.664,5.693s-1.65,2.945,0.566,4.238c2.216,1.293,5.428,1.545,12.224-0.271
						c6.795-1.816,16.489-7.426,21.009-10.981C384.294,250.999,390.762,246.729,388.709,244.96z"/>
					<use xlink:href="#XMLID_10_"  style="overflow:visible;fill:none;stroke:#263238;stroke-miterlimit:10;"/>
				</g>
				<polyline style="fill:#FFFFFF;stroke:#263238;stroke-linecap:round;stroke-linejoin:round;stroke-miterlimit:10;" points="
					327.54,222.912 335.868,234.584 338.047,232.601 331.973,225.14 				"/>
				<polyline style="fill:none;stroke:#263238;stroke-linecap:round;stroke-linejoin:round;stroke-miterlimit:10;" points="
					300.817,222.723 312.776,233.994 294.438,222.824 				"/>
				
					<line style="fill:none;stroke:#263238;stroke-linecap:round;stroke-linejoin:round;stroke-miterlimit:10;" x1="361.786" y1="220.179" x2="346.934" y2="217.5"/>
				
					<line style="fill:none;stroke:#263238;stroke-linecap:round;stroke-linejoin:round;stroke-miterlimit:10;" x1="360.246" y1="220.045" x2="345.297" y2="220.727"/>
				<path style="fill:#FFFFFF;stroke:#263238;stroke-linecap:round;stroke-linejoin:round;stroke-miterlimit:10;" d="
					M374.999,241.704c0.743-0.061,1.482-0.139,2.212-0.237"/>
				<path style="fill:none;stroke:#263238;stroke-linecap:round;stroke-linejoin:round;stroke-miterlimit:10;" d="M347.482,238.484
					c0,0,13.066,3.849,25.489,3.343"/>
			</g>
			<g>
				<defs>
					<path id="XMLID_9_" d="M314.747,209.665c0,0,2.411,7.851,2.859,11.197c0.447,3.346-1.173,6.514,0.805,6.022
						c1.978-0.491,1.902-6.157,1.902-6.157l7.242,1.529l3.21-6.559c0,0,5.935,5.337,5.8,2.63
						c-0.135-2.706-6.235-14.378-6.593-17.055c-0.358-2.677-3.629-3.374-5.874-1.485
						C321.852,201.678,314.747,209.665,314.747,209.665z"/>
				</defs>
				<use xlink:href="#XMLID_9_"  style="overflow:visible;fill:#FFFFFF;"/>
				<clipPath id="XMLID_00000183962014396359931750000008440222774868197822_">
					<use xlink:href="#XMLID_9_"  style="overflow:visible;"/>
				</clipPath>
				<path style="clip-path:url(#XMLID_00000183962014396359931750000008440222774868197822_);fill:#C6FF00;" d="M329.972,201.274
					c-0.358-2.677-3.629-3.374-5.874-1.485c-0.245,0.206-0.556,0.495-0.901,0.828l3.176,9.042l6.12-1.816
					C331.227,204.97,330.118,202.368,329.972,201.274z"/>
				<path style="opacity:0.5;clip-path:url(#XMLID_00000183962014396359931750000008440222774868197822_);fill:#FFFFFF;" d="
					M329.972,201.274c-0.358-2.677-3.629-3.374-5.874-1.485c-0.245,0.206-0.556,0.495-0.901,0.828l3.176,9.042l6.12-1.816
					C331.227,204.97,330.118,202.368,329.972,201.274z"/>
				<use xlink:href="#XMLID_9_"  style="overflow:visible;fill:none;stroke:#263238;stroke-miterlimit:10;"/>
			</g>
			<g>
				<defs>
					<path id="XMLID_8_" d="M305.511,206.813c0,0,4.373,2.14,6.975,2.927c2.603,0.787,15.515,15.862,15.068,12.516
						c-0.447-3.346-1.284-16.402-2.147-19.465c-0.863-3.063-3.423-8.624-3.423-8.624s2.081-1.413-1.28-2.781
						c-3.361-1.367-5.963,1.251-5.784,2.589c0.179,1.338,0.566,4.238-0.296,4.58S305.511,206.813,305.511,206.813z"/>
				</defs>
				<use xlink:href="#XMLID_8_"  style="overflow:visible;fill:#FFFFFF;"/>
				<clipPath id="XMLID_00000049182099610646042310000015144246233809083070_">
					<use xlink:href="#XMLID_8_"  style="overflow:visible;"/>
				</clipPath>
				<path style="clip-path:url(#XMLID_00000049182099610646042310000015144246233809083070_);fill:#C6FF00;" d="M325.407,202.792
					c-0.863-3.063-3.423-8.624-3.423-8.624s2.081-1.413-1.28-2.78c-3.361-1.367-5.963,1.251-5.784,2.589
					c0.179,1.338,0.566,4.238-0.296,4.58c-0.573,0.227-4.396,3.787-6.905,6.157l-0.303,1.832l18.957,3.112
					C326.068,206.638,325.74,203.972,325.407,202.792z"/>
				<path style="opacity:0.5;clip-path:url(#XMLID_00000049182099610646042310000015144246233809083070_);fill:#FFFFFF;" d="
					M325.407,202.792c-0.863-3.063-3.423-8.624-3.423-8.624s2.081-1.413-1.28-2.78c-3.361-1.367-5.963,1.251-5.784,2.589
					c0.179,1.338,0.566,4.238-0.296,4.58c-0.573,0.227-4.396,3.787-6.905,6.157l-0.303,1.832l18.957,3.112
					C326.068,206.638,325.74,203.972,325.407,202.792z"/>
				<use xlink:href="#XMLID_8_"  style="overflow:visible;fill:none;stroke:#263238;stroke-miterlimit:10;"/>
			</g>
			<g>
				<path style="fill:#263238;stroke:#263238;stroke-miterlimit:10;" d="M297.964,179.216c0,0-4.417-0.772-7.168-2.674
					c-2.752-1.903-1.697-5.903,1.247-7.659c2.944-1.756,6.467-4.27,10.319-4.331c3.852-0.061,5.087,4.088,7.823,4.176
					c2.736,0.088,10.022-3.156,14.097,0.159c4.076,3.315,3.588,14.959,2.102,17.428c-1.486,2.469-4.399,7.853-4.399,7.853
					s-2.35-0.594-4.224-1.025c-1.874-0.431-0.655-1.502-2.632-1.01c-1.978,0.491-3.955,0.983-5.725-0.37
					c-1.77-1.353-2.202-2.884-3.273-4.103c-1.071-1.219-3.02-3.91-2.693-4.862c0.327-0.952,0.445-3.465,0.445-3.465L297.964,179.216
					z"/>
				<path style="fill:none;stroke:#FFFFFF;stroke-linecap:round;stroke-linejoin:round;stroke-miterlimit:10;" d="M309.552,177.238
					c0,0,10.206,0.927,14.41,4.949"/>
				<path style="fill:none;stroke:#FFFFFF;stroke-linecap:round;stroke-linejoin:round;stroke-miterlimit:10;" d="M321.665,184.342
					c0.744,0.455,1.453,0.965,2.102,1.537"/>
				<path style="fill:none;stroke:#FFFFFF;stroke-linecap:round;stroke-linejoin:round;stroke-miterlimit:10;" d="M309.553,180.675
					c0,0,4.494,0.313,8.965,2.106"/>
				<path style="fill:none;stroke:#FFFFFF;stroke-linecap:round;stroke-linejoin:round;stroke-miterlimit:10;" d="M319.964,176.276
					c1.993,1.195,2.841,2.399,2.841,2.399"/>
				<path style="fill:none;stroke:#FFFFFF;stroke-linecap:round;stroke-linejoin:round;stroke-miterlimit:10;" d="M296.957,170.443
					c0,0-4.562,3.588-1.559,5.479c3.002,1.89,5.703-1.908,14.858-1.986c3.426-0.029,6.046,0.627,7.982,1.46"/>
			</g>
			<g>
				<defs>
					<path id="XMLID_7_" d="M296.193,177.863c0,0-2.041,7.116-1.633,8.165c0.541,1.391,0.923,3.509,0.923,3.509l-2.779,4.685
						c0,0,0.462,1.755,1.384,1.858c0.922,0.104,3.138,1.397,3.138,1.397s2.68,9.858,3.632,10.185
						c0.952,0.327,3.138,1.397,3.971,0.832c0.833-0.565,10.987-7.825,12.206-8.896c1.219-1.071,0.727-6.454,0.727-6.454
						s3.122-3.823,1.872-6.38c-1.25-2.557-4.09-1.724-4.967,0.21c-0.877,1.934-1.204,2.885-1.204,2.885s-2.171,0.744-2.573-0.564
						c-0.402-1.309-0.402-1.309-0.402-1.309s-3.793-2.899-3.882-3.568c-0.089-0.669,1.247-7.659,1.247-7.659L296.193,177.863z"/>
				</defs>
				<use xlink:href="#XMLID_7_"  style="overflow:visible;fill:#FFFFFF;"/>
				<clipPath id="XMLID_00000114033059660192263010000000682335341609853875_">
					<use xlink:href="#XMLID_7_"  style="overflow:visible;"/>
				</clipPath>
				<path style="clip-path:url(#XMLID_00000114033059660192263010000000682335341609853875_);fill:#C6FF00;" d="M319.632,186.763
					c-1.25-2.557-4.09-1.724-4.967,0.21c-0.877,1.934-1.204,2.885-1.204,2.885s-2.171,0.744-2.573-0.564
					c-0.402-1.309-0.402-1.309-0.402-1.309s-3.793-2.899-3.882-3.568c-0.089-0.669,1.247-7.659,1.247-7.659l-3.448,0.327
					c-1.54,3.882-2.873,8.138-2.082,9.72c1.592,3.184,3.184,4.776,3.184,7.005s1.274,4.139,1.592,6.05
					c0.255,1.531-2.348,6.733-3.394,8.743c0.454,0.074,0.86,0.069,1.124-0.11c0.833-0.565,10.987-7.825,12.206-8.896
					c1.219-1.071,0.727-6.454,0.727-6.454S320.882,189.321,319.632,186.763z"/>
				<path style="opacity:0.5;clip-path:url(#XMLID_00000114033059660192263010000000682335341609853875_);fill:#FFFFFF;" d="
					M319.632,186.763c-1.25-2.557-4.09-1.724-4.967,0.21c-0.877,1.934-1.204,2.885-1.204,2.885s-2.171,0.744-2.573-0.564
					c-0.402-1.309-0.402-1.309-0.402-1.309s-3.793-2.899-3.882-3.568c-0.089-0.669,1.247-7.659,1.247-7.659l-3.448,0.327
					c-1.54,3.882-2.873,8.138-2.082,9.72c1.592,3.184,3.184,4.776,3.184,7.005s1.274,4.139,1.592,6.05
					c0.255,1.531-2.348,6.733-3.394,8.743c0.454,0.074,0.86,0.069,1.124-0.11c0.833-0.565,10.987-7.825,12.206-8.896
					c1.219-1.071,0.727-6.454,0.727-6.454S320.882,189.321,319.632,186.763z"/>
				<use xlink:href="#XMLID_7_"  style="overflow:visible;fill:none;stroke:#263238;stroke-miterlimit:10;"/>
			</g>
			<path style="fill:#FFFFFF;stroke:#263238;stroke-linecap:round;stroke-linejoin:round;stroke-miterlimit:10;" d="M222.19,203.418
				c0,0-4.222,2.381-5.917,3.288c-1.695,0.908-4.178,1.012-3.36,2.038c0.818,1.026,5.353-0.715,5.353-0.715s5.22-0.016,7.227-0.285
				c2.007-0.268,2.661-2.172,2.661-2.172"/>
			<g>
				<path style="fill:#C6FF00;stroke:#263238;stroke-linecap:round;stroke-linejoin:round;stroke-miterlimit:10;" d="
					M392.718,375.617l-0.476,9.648c0,0-5.729,11.863-6.125,12.673c-0.396,0.81,0.331,2.478,2.247,1.717
					c1.916-0.76,5.946-4.578,8.225-6.396c2.279-1.818,5.714-6.313,7.779-7.85c2.065-1.537,4.393-4.875,4.294-5.618
					c-0.099-0.743-11.154-9.859-11.154-9.859L392.718,375.617z"/>
				<path style="fill:#263238;stroke:#263238;stroke-linecap:round;stroke-linejoin:round;stroke-miterlimit:10;" d="
					M404.368,385.41c2.065-1.537,4.393-4.875,4.294-5.618c-0.021-0.155-0.524-0.679-1.3-1.406c-1.5,1.657-4.496,4.956-7.173,7.835
					c-3.03,3.259-10.781,10.605-13.645,13.305c0.389,0.319,0.985,0.461,1.82,0.13c1.916-0.76,5.946-4.578,8.225-6.396
					C398.868,391.442,402.303,386.947,404.368,385.41z"/>
			</g>
			<g>
				<path style="fill:#C6FF00;stroke:#263238;stroke-linecap:round;stroke-linejoin:round;stroke-miterlimit:10;" d="
					M405.327,334.081l5.321,5.847l8.332,17.047c0,0,2.082,0.478,3.007-0.15c0.925-0.628-0.651-21.856-1.081-25.078
					c-0.431-3.221,0.147-4.56-1.191-5.138c-1.338-0.578-12.952,1.227-12.952,1.227L405.327,334.081z"/>
				<path style="fill:#263238;stroke:#263238;stroke-linecap:round;stroke-linejoin:round;stroke-miterlimit:10;" d="
					M419.714,326.609c-0.239-0.103-0.811-0.129-1.581-0.104c0.657,5.891,2.322,20.748,2.745,23.91
					c0.3,2.245,0.245,4.858,0.141,6.705c0.365-0.038,0.711-0.122,0.968-0.296c0.925-0.628-0.651-21.856-1.081-25.078
					C420.474,328.525,421.052,327.187,419.714,326.609z"/>
			</g>
		</g>
	</g>
</g>
<g id="Graphics">
	<g>
		<g>
			<g>
				
					<line style="fill:none;stroke:#263238;stroke-linecap:round;stroke-linejoin:round;stroke-miterlimit:10;" x1="98.753" y1="251.333" x2="98.753" y2="260.203"/>
				
					<line style="fill:none;stroke:#263238;stroke-linecap:round;stroke-linejoin:round;stroke-miterlimit:10;" x1="103.188" y1="255.768" x2="94.317" y2="255.768"/>
			</g>
			<g>
				
					<line style="fill:none;stroke:#263238;stroke-linecap:round;stroke-linejoin:round;stroke-miterlimit:10;" x1="345.901" y1="141.22" x2="345.901" y2="150.09"/>
				
					<line style="fill:none;stroke:#263238;stroke-linecap:round;stroke-linejoin:round;stroke-miterlimit:10;" x1="350.336" y1="145.655" x2="341.466" y2="145.655"/>
			</g>
			<g>
				
					<line style="fill:none;stroke:#263238;stroke-linecap:round;stroke-linejoin:round;stroke-miterlimit:10;" x1="331.854" y1="372.658" x2="331.854" y2="381.528"/>
				
					<line style="fill:none;stroke:#263238;stroke-linecap:round;stroke-linejoin:round;stroke-miterlimit:10;" x1="336.289" y1="377.093" x2="327.419" y2="377.093"/>
			</g>
			<g>
				
					<line style="fill:none;stroke:#263238;stroke-linecap:round;stroke-linejoin:round;stroke-miterlimit:10;" x1="219.901" y1="72.553" x2="219.901" y2="81.423"/>
				
					<line style="fill:none;stroke:#263238;stroke-linecap:round;stroke-linejoin:round;stroke-miterlimit:10;" x1="224.336" y1="76.988" x2="215.466" y2="76.988"/>
			</g>
			<g>
				
					<line style="fill:none;stroke:#263238;stroke-linecap:round;stroke-linejoin:round;stroke-miterlimit:10;" x1="73.901" y1="316.553" x2="73.901" y2="325.423"/>
				
					<line style="fill:none;stroke:#263238;stroke-linecap:round;stroke-linejoin:round;stroke-miterlimit:10;" x1="78.336" y1="320.988" x2="69.466" y2="320.988"/>
			</g>
			
				<ellipse transform="matrix(0.229 -0.9734 0.9734 0.229 151.6179 409.9307)" style="fill:none;stroke:#263238;stroke-linecap:round;stroke-linejoin:round;stroke-miterlimit:10;" cx="334.597" cy="109.249" rx="7.333" ry="7.333"/>
			
				<ellipse transform="matrix(0.9239 -0.3827 0.3827 0.9239 -95.4194 51.6733)" style="fill:none;stroke:#263238;stroke-linecap:round;stroke-linejoin:round;stroke-miterlimit:10;" cx="82.18" cy="265.689" rx="7.333" ry="7.333"/>
			<path style="fill:none;stroke:#263238;stroke-linecap:round;stroke-linejoin:round;stroke-miterlimit:10;" d="M375.264,184.249
				c0,0.921-0.746,1.667-1.667,1.667c-0.92,0-1.667-0.746-1.667-1.667c0-0.92,0.746-1.667,1.667-1.667
				C374.517,182.583,375.264,183.329,375.264,184.249z"/>
			<path style="fill:none;stroke:#263238;stroke-linecap:round;stroke-linejoin:round;stroke-miterlimit:10;" d="M318.604,387.088
				c0,0.921-0.746,1.667-1.667,1.667c-0.92,0-1.667-0.746-1.667-1.667c0-0.92,0.746-1.667,1.667-1.667
				C317.858,385.421,318.604,386.168,318.604,387.088z"/>
			<path style="fill:none;stroke:#263238;stroke-linecap:round;stroke-linejoin:round;stroke-miterlimit:10;" d="M410.243,293.454
				c0,0.921-0.746,1.667-1.667,1.667c-0.92,0-1.667-0.746-1.667-1.667c0-0.92,0.746-1.667,1.667-1.667
				C409.497,291.787,410.243,292.533,410.243,293.454z"/>
			<path style="fill:none;stroke:#263238;stroke-linecap:round;stroke-linejoin:round;stroke-miterlimit:10;" d="M317.935,269.033
				c0,0.921-0.746,1.667-1.667,1.667c-0.92,0-1.667-0.746-1.667-1.667c0-0.92,0.746-1.667,1.667-1.667
				C317.189,267.367,317.935,268.113,317.935,269.033z"/>
			<path style="fill:none;stroke:#263238;stroke-linecap:round;stroke-linejoin:round;stroke-miterlimit:10;" d="M201.887,87.094
				c0,0.921-0.746,1.667-1.667,1.667s-1.667-0.746-1.667-1.667c0-0.92,0.746-1.667,1.667-1.667S201.887,86.173,201.887,87.094z"/>
		</g>
	</g>
</g>
</svg>
