<?xml version="1.0" encoding="utf-8"?>
<!-- Generator: Adobe Illustrator 27.5.0, SVG Export Plug-In . SVG Version: 6.00 Build 0)  -->
<svg version="1.1" xmlns="http://www.w3.org/2000/svg" xmlns:xlink="http://www.w3.org/1999/xlink" x="0px" y="0px"
	 viewBox="0 0 500 500" style="enable-background:new 0 0 500 500;" xml:space="preserve">
<g id="Background_complete">
	<g>
		<g>
			<g>
				<g>
					<path style="fill:#E0E0E0;" d="M443.92,298.734H263.174c-3.232,0-5.862-2.63-5.862-5.862V29.598
						c0-3.232,2.63-5.862,5.862-5.862H443.92c3.232,0,5.862,2.629,5.862,5.862v263.273
						C449.783,296.104,447.153,298.734,443.92,298.734z M263.174,23.986c-3.095,0-5.612,2.518-5.612,5.612v263.273
						c0,3.095,2.518,5.612,5.612,5.612H443.92c3.095,0,5.612-2.518,5.612-5.612V29.598c0-3.094-2.518-5.612-5.612-5.612H263.174z"/>
				</g>
			</g>
			<g>
				<g>
					<path style="fill:#E0E0E0;" d="M235.493,298.734H54.746c-3.232,0-5.862-2.63-5.862-5.862V29.598
						c0-3.232,2.629-5.862,5.862-5.862h180.747c3.232,0,5.862,2.629,5.862,5.862v263.273
						C241.355,296.104,238.725,298.734,235.493,298.734z M54.746,23.986c-3.094,0-5.612,2.518-5.612,5.612v263.273
						c0,3.095,2.518,5.612,5.612,5.612h180.747c3.095,0,5.612-2.518,5.612-5.612V29.598c0-3.094-2.518-5.612-5.612-5.612H54.746z"/>
				</g>
			</g>
		</g>
		<g>
			<g>
				<rect x="0" y="334.695" style="fill:#E0E0E0;" width="500" height="0.25"/>
			</g>
			<rect x="51.672" y="348.96" style="fill:#E0E0E0;" width="16.06" height="0.25"/>
			<rect x="170.352" y="346.25" style="fill:#E0E0E0;" width="53.53" height="0.25"/>
			<rect x="68.732" y="358.25" style="fill:#E0E0E0;" width="36.25" height="0.25"/>
			<rect x="378.352" y="346.12" style="fill:#E0E0E0;" width="43.19" height="0.25"/>
			<rect x="430.452" y="346.12" style="fill:#E0E0E0;" width="6.33" height="0.25"/>
			<rect x="316.212" y="352.35" style="fill:#E0E0E0;" width="53.89" height="0.25"/>
		</g>
	</g>
	<g id="freepik--background-complete--inject-481_00000094613527366731375080000002593904380488357262_">
		<polygon style="fill:#EBEBEB;" points="439.683,233.984 438.84,187.801 412.953,187.801 412.953,198.333 393.894,198.333 
			393.894,82.968 357.246,82.968 357.246,128.375 346.251,128.375 346.251,105.701 317.656,105.701 317.656,216.281 
			277.335,216.281 277.335,177.212 252.054,177.212 252.054,92.504 220.852,92.504 220.852,148.976 191.527,148.976 
			191.527,270.632 168.806,270.632 168.806,211.391 145.344,211.391 145.344,173.272 120.422,173.272 120.422,144.005 
			92.615,158.673 92.615,236.974 63.29,236.974 63.29,220.822 24.116,220.822 24.116,334.31 480.084,334.531 480.084,233.984 		"/>
		<path style="fill:#E6E6E6;" d="M147.256,334.371v-168.85H116.1v169.01C125.96,334.287,147.256,334.371,147.256,334.371z"/>
		<path style="fill:#FAFAFA;" d="M118.881,334.531v-92.864H54.762v92.659L118.881,334.531z"/>
		<path style="fill:#E0E0E0;" d="M196.787,334.394V198.067h-36.323v136.309L196.787,334.394z"/>
		<rect x="163.222" y="203.408" style="fill:#FAFAFA;" width="4.403" height="9.084"/>
		<rect x="172.027" y="203.408" style="fill:#FAFAFA;" width="4.403" height="9.084"/>
		<rect x="180.833" y="203.408" style="fill:#FAFAFA;" width="4.403" height="9.084"/>
		<rect x="189.638" y="203.408" style="fill:#FAFAFA;" width="4.403" height="9.084"/>
		<rect x="163.222" y="218.644" style="fill:#FAFAFA;" width="4.403" height="9.084"/>
		<rect x="172.027" y="218.644" style="fill:#FAFAFA;" width="4.403" height="9.084"/>
		<rect x="180.833" y="218.644" style="fill:#FAFAFA;" width="4.403" height="9.084"/>
		<rect x="189.638" y="218.644" style="fill:#FAFAFA;" width="4.403" height="9.084"/>
		<rect x="163.222" y="233.869" style="fill:#FAFAFA;" width="4.403" height="9.084"/>
		<rect x="172.027" y="233.869" style="fill:#FAFAFA;" width="4.403" height="9.084"/>
		<rect x="180.833" y="233.869" style="fill:#FAFAFA;" width="4.403" height="9.084"/>
		<rect x="189.638" y="233.869" style="fill:#FAFAFA;" width="4.403" height="9.084"/>
		<rect x="163.222" y="249.093" style="fill:#FAFAFA;" width="4.403" height="9.084"/>
		<rect x="172.027" y="249.093" style="fill:#FAFAFA;" width="4.403" height="9.084"/>
		<rect x="180.833" y="249.093" style="fill:#FAFAFA;" width="4.403" height="9.084"/>
		<rect x="189.638" y="249.093" style="fill:#FAFAFA;" width="4.403" height="9.084"/>
		<rect x="163.222" y="264.318" style="fill:#FAFAFA;" width="4.403" height="9.084"/>
		<rect x="172.027" y="264.318" style="fill:#FAFAFA;" width="4.403" height="9.084"/>
		<rect x="180.833" y="264.318" style="fill:#FAFAFA;" width="4.403" height="9.084"/>
		<rect x="189.638" y="264.318" style="fill:#FAFAFA;" width="4.403" height="9.084"/>
		<rect x="163.222" y="279.542" style="fill:#FAFAFA;" width="4.403" height="9.084"/>
		<rect x="172.027" y="279.542" style="fill:#FAFAFA;" width="4.403" height="9.084"/>
		<rect x="180.833" y="279.542" style="fill:#FAFAFA;" width="4.403" height="9.084"/>
		<rect x="189.638" y="279.542" style="fill:#FAFAFA;" width="4.403" height="9.084"/>
		<rect x="163.222" y="294.767" style="fill:#FAFAFA;" width="4.403" height="9.084"/>
		<rect x="172.027" y="294.767" style="fill:#FAFAFA;" width="4.403" height="9.084"/>
		<rect x="180.833" y="294.767" style="fill:#FAFAFA;" width="4.403" height="9.084"/>
		<rect x="189.638" y="294.767" style="fill:#FAFAFA;" width="4.403" height="9.084"/>
		<rect x="163.222" y="310.002" style="fill:#FAFAFA;" width="4.403" height="9.084"/>
		<rect x="172.027" y="310.002" style="fill:#FAFAFA;" width="4.403" height="9.084"/>
		<rect x="180.833" y="310.002" style="fill:#FAFAFA;" width="4.403" height="9.084"/>
		<rect x="189.638" y="310.002" style="fill:#FAFAFA;" width="4.403" height="9.084"/>
		<path style="fill:#F5F5F5;" d="M323.008,334.455V178.648h-75.311v155.859C247.697,334.508,322.431,334.531,323.008,334.455z"/>
		<rect x="253.351" y="184.859" style="fill:#E6E6E6;" width="9.13" height="10.462"/>
		<rect x="271.623" y="184.859" style="fill:#E6E6E6;" width="9.13" height="10.462"/>
		<rect x="289.883" y="184.859" style="fill:#E6E6E6;" width="9.13" height="10.462"/>
		<rect x="308.155" y="184.859" style="fill:#E6E6E6;" width="9.13" height="10.462"/>
		<rect x="253.351" y="202.412" style="fill:#E6E6E6;" width="9.13" height="10.462"/>
		<rect x="271.623" y="202.412" style="fill:#E6E6E6;" width="9.13" height="10.462"/>
		<rect x="289.883" y="202.412" style="fill:#E6E6E6;" width="9.13" height="10.462"/>
		<rect x="308.155" y="202.412" style="fill:#E6E6E6;" width="9.13" height="10.462"/>
		<rect x="253.351" y="219.954" style="fill:#E6E6E6;" width="9.13" height="10.462"/>
		<rect x="271.623" y="219.954" style="fill:#E6E6E6;" width="9.13" height="10.462"/>
		<rect x="289.883" y="219.954" style="fill:#E6E6E6;" width="9.13" height="10.462"/>
		<rect x="308.155" y="219.954" style="fill:#E6E6E6;" width="9.13" height="10.462"/>
		<rect x="253.351" y="237.495" style="fill:#E6E6E6;" width="9.13" height="10.462"/>
		<rect x="271.623" y="237.495" style="fill:#E6E6E6;" width="9.13" height="10.462"/>
		<rect x="289.883" y="237.495" style="fill:#E6E6E6;" width="9.13" height="10.462"/>
		<rect x="308.155" y="237.495" style="fill:#E6E6E6;" width="9.13" height="10.462"/>
		<rect x="253.351" y="255.048" style="fill:#E6E6E6;" width="9.13" height="10.462"/>
		<rect x="271.623" y="255.048" style="fill:#E6E6E6;" width="9.13" height="10.462"/>
		<rect x="289.883" y="255.048" style="fill:#E6E6E6;" width="9.13" height="10.462"/>
		<rect x="308.155" y="255.048" style="fill:#E6E6E6;" width="9.13" height="10.462"/>
		<rect x="253.351" y="272.59" style="fill:#E6E6E6;" width="9.13" height="10.462"/>
		<rect x="271.623" y="272.59" style="fill:#E6E6E6;" width="9.13" height="10.462"/>
		<rect x="289.883" y="272.59" style="fill:#E6E6E6;" width="9.13" height="10.462"/>
		<rect x="308.155" y="272.59" style="fill:#E6E6E6;" width="9.13" height="10.462"/>
		<rect x="253.351" y="290.143" style="fill:#E6E6E6;" width="9.13" height="10.462"/>
		<rect x="271.623" y="290.143" style="fill:#E6E6E6;" width="9.13" height="10.462"/>
		<rect x="289.883" y="290.143" style="fill:#E6E6E6;" width="9.13" height="10.462"/>
		<rect x="308.155" y="290.143" style="fill:#E6E6E6;" width="9.13" height="10.462"/>
		<rect x="253.351" y="307.685" style="fill:#E6E6E6;" width="9.13" height="10.462"/>
		<rect x="271.623" y="307.685" style="fill:#E6E6E6;" width="9.13" height="10.462"/>
		<rect x="289.883" y="307.685" style="fill:#E6E6E6;" width="9.13" height="10.462"/>
		<rect x="308.155" y="307.685" style="fill:#E6E6E6;" width="9.13" height="10.462"/>
		<rect x="121.844" y="176.997" style="fill:#FAFAFA;" width="8.413" height="9.641"/>
		<rect x="121.844" y="193.162" style="fill:#FAFAFA;" width="8.413" height="9.641"/>
		<rect x="121.844" y="209.337" style="fill:#FAFAFA;" width="8.413" height="9.641"/>
		<rect x="121.844" y="225.502" style="fill:#FAFAFA;" width="8.413" height="9.641"/>
		<rect x="121.844" y="241.667" style="fill:#FAFAFA;" width="8.413" height="9.641"/>
		<rect x="121.844" y="257.842" style="fill:#FAFAFA;" width="8.413" height="9.641"/>
		<rect x="121.844" y="274.007" style="fill:#FAFAFA;" width="8.413" height="9.641"/>
		<rect x="121.844" y="290.183" style="fill:#FAFAFA;" width="8.413" height="9.641"/>
		<rect x="133.098" y="176.997" style="fill:#FAFAFA;" width="8.413" height="9.641"/>
		<rect x="133.098" y="193.162" style="fill:#FAFAFA;" width="8.413" height="9.641"/>
		<rect x="133.098" y="209.337" style="fill:#FAFAFA;" width="8.413" height="9.641"/>
		<rect x="133.098" y="225.502" style="fill:#FAFAFA;" width="8.413" height="9.641"/>
		<rect x="133.098" y="241.667" style="fill:#FAFAFA;" width="8.413" height="9.641"/>
		<rect x="133.098" y="257.842" style="fill:#FAFAFA;" width="8.413" height="9.641"/>
		<rect x="133.098" y="274.007" style="fill:#FAFAFA;" width="8.413" height="9.641"/>
		<rect x="133.098" y="290.183" style="fill:#FAFAFA;" width="8.413" height="9.641"/>
		<rect x="227.989" y="103.71" style="fill:#FAFAFA;" width="9.13" height="10.462"/>
		<rect x="227.989" y="121.251" style="fill:#FAFAFA;" width="9.13" height="10.462"/>
		<rect x="227.989" y="137.598" style="fill:#FAFAFA;" width="9.13" height="10.462"/>
		<rect x="227.989" y="155.14" style="fill:#FAFAFA;" width="9.13" height="10.462"/>
		<rect x="227.989" y="172.681" style="fill:#FAFAFA;" width="9.13" height="10.462"/>
		<rect x="227.989" y="190.235" style="fill:#FAFAFA;" width="9.13" height="10.462"/>
		<rect x="227.989" y="207.776" style="fill:#FAFAFA;" width="9.13" height="10.462"/>
		<rect x="227.989" y="225.33" style="fill:#FAFAFA;" width="9.13" height="10.462"/>
		<rect x="365.136" y="88.495" style="fill:#FAFAFA;" width="9.13" height="10.462"/>
		<rect x="365.136" y="106.037" style="fill:#FAFAFA;" width="9.13" height="10.462"/>
		<rect x="365.136" y="123.59" style="fill:#FAFAFA;" width="9.13" height="10.462"/>
		<rect x="365.136" y="141.132" style="fill:#FAFAFA;" width="9.13" height="10.462"/>
		<rect x="365.136" y="158.685" style="fill:#FAFAFA;" width="9.13" height="10.462"/>
		<rect x="365.136" y="176.227" style="fill:#FAFAFA;" width="9.13" height="10.462"/>
		<rect x="365.136" y="193.78" style="fill:#FAFAFA;" width="9.13" height="10.462"/>
		<rect x="365.136" y="211.322" style="fill:#FAFAFA;" width="9.13" height="10.462"/>
		<rect x="384.694" y="169.101" style="fill:#E6E6E6;" width="54.989" height="165.429"/>
		<rect x="392.828" y="177.258" style="fill:#FAFAFA;" width="16.117" height="10.462"/>
		<rect x="392.828" y="194.811" style="fill:#FAFAFA;" width="16.117" height="10.462"/>
		<rect x="392.828" y="212.353" style="fill:#FAFAFA;" width="16.117" height="10.462"/>
		<rect x="392.828" y="229.906" style="fill:#FAFAFA;" width="16.117" height="10.462"/>
		<rect x="392.828" y="247.448" style="fill:#FAFAFA;" width="16.117" height="10.462"/>
		<rect x="392.828" y="264.99" style="fill:#FAFAFA;" width="16.117" height="10.462"/>
		<rect x="392.828" y="282.543" style="fill:#FAFAFA;" width="16.117" height="10.462"/>
		<rect x="392.828" y="300.085" style="fill:#FAFAFA;" width="16.117" height="10.462"/>
		<rect x="414.39" y="177.258" style="fill:#FAFAFA;" width="16.117" height="10.462"/>
		<rect x="414.39" y="194.811" style="fill:#FAFAFA;" width="16.117" height="10.462"/>
		<rect x="414.39" y="212.353" style="fill:#FAFAFA;" width="16.117" height="10.462"/>
		<rect x="414.39" y="229.906" style="fill:#FAFAFA;" width="16.117" height="10.462"/>
		<rect x="414.39" y="247.448" style="fill:#FAFAFA;" width="16.117" height="10.462"/>
		<rect x="414.39" y="264.99" style="fill:#FAFAFA;" width="16.117" height="10.462"/>
		<rect x="414.39" y="282.543" style="fill:#FAFAFA;" width="16.117" height="10.462"/>
		<rect x="414.39" y="300.085" style="fill:#FAFAFA;" width="16.117" height="10.462"/>
		<path style="fill:#E0E0E0;" d="M354.709,334.47V219.954h-23.984v114.505L354.709,334.47z"/>
		<rect x="332.544" y="224.588" style="fill:#FAFAFA;" width="2.908" height="7.798"/>
		<rect x="338.36" y="224.588" style="fill:#FAFAFA;" width="2.908" height="7.798"/>
		<rect x="344.165" y="224.588" style="fill:#FAFAFA;" width="2.908" height="7.798"/>
		<rect x="349.982" y="224.588" style="fill:#FAFAFA;" width="2.908" height="7.798"/>
		<rect x="332.544" y="237.669" style="fill:#FAFAFA;" width="2.908" height="7.798"/>
		<rect x="338.36" y="237.669" style="fill:#FAFAFA;" width="2.908" height="7.798"/>
		<rect x="344.165" y="237.669" style="fill:#FAFAFA;" width="2.908" height="7.798"/>
		<rect x="349.982" y="237.669" style="fill:#FAFAFA;" width="2.908" height="7.798"/>
		<rect x="332.544" y="250.75" style="fill:#FAFAFA;" width="2.908" height="7.798"/>
		<rect x="338.36" y="250.75" style="fill:#FAFAFA;" width="2.908" height="7.798"/>
		<rect x="344.165" y="250.75" style="fill:#FAFAFA;" width="2.908" height="7.798"/>
		<rect x="349.982" y="250.75" style="fill:#FAFAFA;" width="2.908" height="7.798"/>
		<rect x="332.544" y="263.831" style="fill:#FAFAFA;" width="2.908" height="7.798"/>
		<rect x="338.36" y="263.831" style="fill:#FAFAFA;" width="2.908" height="7.798"/>
		<rect x="344.165" y="263.831" style="fill:#FAFAFA;" width="2.908" height="7.798"/>
		<rect x="349.982" y="263.831" style="fill:#FAFAFA;" width="2.908" height="7.798"/>
		<rect x="332.544" y="276.923" style="fill:#FAFAFA;" width="2.908" height="7.798"/>
		<rect x="338.36" y="276.923" style="fill:#FAFAFA;" width="2.908" height="7.798"/>
		<rect x="344.165" y="276.923" style="fill:#FAFAFA;" width="2.908" height="7.798"/>
		<rect x="349.982" y="276.923" style="fill:#FAFAFA;" width="2.908" height="7.798"/>
		<rect x="332.544" y="290.004" style="fill:#FAFAFA;" width="2.908" height="7.798"/>
		<rect x="338.36" y="290.004" style="fill:#FAFAFA;" width="2.908" height="7.798"/>
		<rect x="344.165" y="290.004" style="fill:#FAFAFA;" width="2.908" height="7.798"/>
		<rect x="349.982" y="290.004" style="fill:#FAFAFA;" width="2.908" height="7.798"/>
		<rect x="332.544" y="303.086" style="fill:#FAFAFA;" width="2.908" height="7.798"/>
		<rect x="338.36" y="303.086" style="fill:#FAFAFA;" width="2.908" height="7.798"/>
		<rect x="344.165" y="303.086" style="fill:#FAFAFA;" width="2.908" height="7.798"/>
		<rect x="349.982" y="303.086" style="fill:#FAFAFA;" width="2.908" height="7.798"/>
		<rect x="332.544" y="316.166" style="fill:#FAFAFA;" width="2.908" height="7.798"/>
		<rect x="338.36" y="316.166" style="fill:#FAFAFA;" width="2.908" height="7.798"/>
		<rect x="344.165" y="316.166" style="fill:#FAFAFA;" width="2.908" height="7.798"/>
		<rect x="349.982" y="316.166" style="fill:#FAFAFA;" width="2.908" height="7.798"/>
		<rect x="59.617" y="245.548" style="fill:#E6E6E6;" width="7.774" height="6.546"/>
		<rect x="75.166" y="245.548" style="fill:#E6E6E6;" width="7.774" height="6.546"/>
		<rect x="90.703" y="245.548" style="fill:#E6E6E6;" width="7.774" height="6.546"/>
		<rect x="106.252" y="245.548" style="fill:#E6E6E6;" width="7.774" height="6.546"/>
		<rect x="59.617" y="256.52" style="fill:#E6E6E6;" width="7.774" height="6.546"/>
		<rect x="75.166" y="256.52" style="fill:#E6E6E6;" width="7.774" height="6.546"/>
		<rect x="90.703" y="256.52" style="fill:#E6E6E6;" width="7.774" height="6.546"/>
		<rect x="106.252" y="256.52" style="fill:#E6E6E6;" width="7.774" height="6.546"/>
		<rect x="59.617" y="267.492" style="fill:#E6E6E6;" width="7.774" height="6.546"/>
		<rect x="75.166" y="267.492" style="fill:#E6E6E6;" width="7.774" height="6.546"/>
		<rect x="90.703" y="267.492" style="fill:#E6E6E6;" width="7.774" height="6.546"/>
		<rect x="106.252" y="267.492" style="fill:#E6E6E6;" width="7.774" height="6.546"/>
		<rect x="59.617" y="278.465" style="fill:#E6E6E6;" width="7.774" height="6.546"/>
		<rect x="75.166" y="278.465" style="fill:#E6E6E6;" width="7.774" height="6.546"/>
		<rect x="90.703" y="278.465" style="fill:#E6E6E6;" width="7.774" height="6.546"/>
		<rect x="106.252" y="278.465" style="fill:#E6E6E6;" width="7.774" height="6.546"/>
		<rect x="59.617" y="289.425" style="fill:#E6E6E6;" width="7.774" height="6.546"/>
		<rect x="75.166" y="289.425" style="fill:#E6E6E6;" width="7.774" height="6.546"/>
		<rect x="90.703" y="289.425" style="fill:#E6E6E6;" width="7.774" height="6.546"/>
		<rect x="106.252" y="289.425" style="fill:#E6E6E6;" width="7.774" height="6.546"/>
		<rect x="59.617" y="300.397" style="fill:#E6E6E6;" width="7.774" height="6.546"/>
		<rect x="75.166" y="300.397" style="fill:#E6E6E6;" width="7.774" height="6.546"/>
		<rect x="90.703" y="300.397" style="fill:#E6E6E6;" width="7.774" height="6.546"/>
		<rect x="106.252" y="300.397" style="fill:#E6E6E6;" width="7.774" height="6.546"/>
		<rect x="59.617" y="311.37" style="fill:#E6E6E6;" width="7.774" height="6.546"/>
		<rect x="75.166" y="311.37" style="fill:#E6E6E6;" width="7.774" height="6.546"/>
		<rect x="90.703" y="311.37" style="fill:#E6E6E6;" width="7.774" height="6.546"/>
		<rect x="106.252" y="311.37" style="fill:#E6E6E6;" width="7.774" height="6.546"/>
	</g>
	<path style="fill:#F5F5F5;" d="M38.164,108.663c0-4.33,3.506-7.843,7.836-7.852c0.764,0.005,1.524,0.12,2.255,0.341
		c-0.126-0.794-0.185-1.597-0.179-2.401c0-9.166,7.431-16.597,16.597-16.597c1.023,0.001,2.044,0.093,3.05,0.276
		c4.159-6.846,13.08-9.025,19.926-4.866c4.271,2.594,6.905,7.203,6.973,12.199h0.243c7.383,0,13.368,5.985,13.368,13.368
		c0,7.383-5.985,13.368-13.368,13.368H45.756C41.52,116.376,38.153,112.901,38.164,108.663z"/>
	<path style="fill:#F5F5F5;" d="M278.694,75.165c0-4.33,3.506-7.843,7.836-7.852c0.764,0.005,1.524,0.12,2.255,0.341
		c-0.126-0.794-0.185-1.597-0.179-2.401c0-9.166,7.431-16.597,16.597-16.597c1.023,0.001,2.043,0.093,3.05,0.276
		c4.159-6.846,13.08-9.025,19.926-4.866c4.27,2.594,6.905,7.203,6.973,12.199h0.243c7.383,0,13.368,5.985,13.368,13.368
		c0,7.383-5.985,13.368-13.368,13.368h-49.109C282.05,82.878,278.683,79.403,278.694,75.165z"/>
	<path style="fill:#F5F5F5;" d="M170.961,76.017c0-1.762,1.428-3.19,3.19-3.19c0.309-0.002,0.617,0.041,0.914,0.128
		c-0.043-0.324-0.064-0.651-0.064-0.978c0-3.735,3.028-6.763,6.764-6.763c0.417,0.001,0.834,0.04,1.244,0.117
		c1.686-2.79,5.314-3.685,8.104-2c1.75,1.057,2.828,2.944,2.85,4.988h0.106c3.007,0.002,5.443,2.441,5.441,5.448
		c-0.002,3.004-2.437,5.439-5.441,5.441h-20.003C172.337,79.161,170.96,77.746,170.961,76.017z"/>
	<path style="fill:#F5F5F5;" d="M265.639,130.012c0-2.187,1.773-3.96,3.96-3.96c0.384-0.003,0.766,0.051,1.135,0.158
		c-0.053-0.403-0.079-0.808-0.079-1.214c0-4.636,3.759-8.395,8.395-8.395c0.518,0.001,1.035,0.05,1.544,0.145
		c2.092-3.463,6.595-4.574,10.058-2.482c2.171,1.312,3.509,3.654,3.537,6.191h0.132c3.732,0.002,6.756,3.03,6.754,6.762
		c-0.002,3.729-3.025,6.751-6.754,6.754h-24.828C267.348,133.915,265.639,132.158,265.639,130.012z"/>
	<path style="fill:#E6E6E6;" d="M142.15,128.109c0-2.873,2.329-5.201,5.201-5.201c0.504-0.003,1.007,0.067,1.491,0.208
		c-0.07-0.529-0.104-1.062-0.104-1.595c0-6.09,4.937-11.027,11.027-11.027c0.68,0.002,1.359,0.066,2.029,0.191
		c2.748-4.549,8.663-6.008,13.212-3.26c2.852,1.723,4.61,4.8,4.646,8.132h0.173c4.903,0.003,8.875,3.98,8.872,8.883
		c-0.003,4.898-3.973,8.868-8.872,8.871h-32.612C144.394,133.236,142.149,130.929,142.15,128.109z"/>
	<path style="fill:#E6E6E6;" d="M430.452,99.739c0-2.048,1.66-3.708,3.708-3.708c0.36-0.002,0.718,0.048,1.063,0.148
		c-0.05-0.377-0.074-0.757-0.074-1.137c0-4.341,3.519-7.86,7.86-7.86c0.485,0.001,0.969,0.047,1.446,0.136
		c1.959-3.242,6.175-4.283,9.418-2.324c2.033,1.228,3.286,3.421,3.312,5.797h0.124c3.495,0.002,6.326,2.837,6.324,6.332
		c-0.002,3.492-2.832,6.322-6.324,6.324h-23.247C432.052,103.394,430.452,101.749,430.452,99.739z"/>
	<path style="fill:#E6E6E6;" d="M16.216,461.746c-1.448,1.283,64.424-103.047,64.424-103.047h12.692L38.535,461.758L16.216,461.746z
		"/>
	<path style="fill:#E6E6E6;" d="M488.079,461.746c1.448,1.283-64.424-103.047-64.424-103.047h-12.692l54.797,103.059
		L488.079,461.746z"/>
</g>
<g id="Background_simple" style="display:none;">
	<g style="display:inline;">
		<path style="fill:#407BFF;" d="M442.798,145.095c-4.932-16.098-15.432-31.621-31.902-45.388
			c-19.412-16.226-49.652-32.806-89.207-27.909c-73.024,9.04-74.354,52.41-123.454,43.75
			c-55.616-9.809-120.854-3.231-138.996,40.781C24.782,239.925,226.4,340.979,337.187,312.597
			C406.158,294.927,468.984,230.571,442.798,145.095z"/>
		<path style="opacity:0.9;fill:#FFFFFF;" d="M442.798,145.095c-4.932-16.098-15.432-31.621-31.902-45.388
			c-19.412-16.226-49.652-32.806-89.207-27.909c-73.024,9.04-74.354,52.41-123.454,43.75
			c-55.616-9.809-120.854-3.231-138.996,40.781C24.782,239.925,226.4,340.979,337.187,312.597
			C406.158,294.927,468.984,230.571,442.798,145.095z"/>
	</g>
</g>
<g id="Shadow">
	<g>
		<g>
			<path style="fill:#F5F5F5;" d="M421.302,428.899c0,30.657-75.754,55.51-169.201,55.51s-169.201-24.853-169.201-55.51
				c0-30.658,75.754-55.511,169.201-55.511S421.302,398.241,421.302,428.899z"/>
		</g>
	</g>
</g>
<g id="Character">
	<g>
		<path style="fill:#263238;" d="M123.153,461.167h-30.96c-5.863,0-10.616-4.753-10.616-10.616v-85.953
			c0-5.863,4.753-10.616,10.616-10.616h30.96c5.863,0,10.615,4.753,10.615,10.616v85.953
			C133.769,456.414,129.016,461.167,123.153,461.167z"/>
		<path style="fill:#263238;" d="M385.378,461.167h33.019c5.863,0,10.616-4.753,10.616-10.616v-85.953
			c0-5.863-4.753-10.616-10.616-10.616h-33.019c-5.863,0-10.616,4.753-10.616,10.616v85.953
			C374.762,456.414,379.515,461.167,385.378,461.167z"/>
		<g>
			<path style="fill:#407BFF;" d="M98.238,297.975c-0.984,0.199-5.678,5.45-9.472,9.856c-3.332,3.87-5.18,8.868-5.199,14.062
				c-0.064,17.439,0.387,55.789,1.542,62.392c1.419,8.115,8.871,36.516,10.645,37.991s13.839,1.844,13.839,1.844
				s1.774-96.268,0-96.637C107.819,327.114,98.238,297.975,98.238,297.975z"/>
			<path style="opacity:0.3;" d="M98.238,297.975c-0.984,0.199-5.678,5.45-9.472,9.856c-3.332,3.87-5.18,8.868-5.199,14.062
				c-0.064,17.439,0.387,55.789,1.542,62.392c1.419,8.115,8.871,36.516,10.645,37.991s13.839,1.844,13.839,1.844
				s1.774-96.268,0-96.637C107.819,327.114,98.238,297.975,98.238,297.975z"/>
		</g>
		<g>
			<path style="fill:#407BFF;" d="M411.596,297.975c1.023,0.199,5.902,5.45,9.845,9.856c3.464,3.87,5.385,8.868,5.404,14.062
				c0.066,17.439-0.402,55.789-1.602,62.392c-1.475,8.115-9.221,36.516-11.065,37.991c-1.844,1.475-14.385,1.844-14.385,1.844
				s-1.844-96.268,0-96.637C401.637,327.114,411.596,297.975,411.596,297.975z"/>
			<path style="opacity:0.3;" d="M411.596,297.975c1.023,0.199,5.902,5.45,9.845,9.856c3.464,3.87,5.385,8.868,5.404,14.062
				c0.066,17.439-0.402,55.789-1.602,62.392c-1.475,8.115-9.221,36.516-11.065,37.991c-1.844,1.475-14.385,1.844-14.385,1.844
				s-1.844-96.268,0-96.637C401.637,327.114,411.596,297.975,411.596,297.975z"/>
		</g>
		<path style="fill:#407BFF;" d="M412.768,386.247c0,0,2.647-77.536,0.295-92.206c-2.008-12.521-37.144-82.488-47.395-102.717
			c-3.278-6.469-8.031-12.046-13.98-15.947c-4.166-2.731-9.301-4.971-15.069-5.148c-8.824-0.271-63.505-0.091-81.554-0.023
			c-18.049-0.068-72.73-0.248-81.554,0.023c-5.768,0.177-10.903,2.417-15.069,5.148c-5.949,3.9-10.702,9.478-13.98,15.947
			c-10.251,20.23-45.387,90.196-47.395,102.717c-2.352,14.671,0.295,92.206,0.295,92.206l-4.117,10.392l8.233,29.952
			c0,0,41.165,4.279,48.222,4.279c7.057,0,12.938-7.335,12.938-7.335l86.646,2.697v0.36l5.781-0.18l5.781,0.18v-0.36l86.646-2.697
			c0,0,5.881,7.335,12.938,7.335c7.057,0,48.222-4.279,48.222-4.279l8.233-29.952L412.768,386.247z"/>
		<path style="opacity:0.3;" d="M401.731,366.531c-52.49,13.159-125.766,15.142-146.667,15.441
			c-20.901-0.299-94.177-2.282-146.667-15.441c0,0-6.181,20.407,0,32.878c0,0,91.083,15.858,146.667,14.222
			c55.583,1.636,146.667-14.222,146.667-14.222C407.912,386.938,401.731,366.531,401.731,366.531z"/>
		<path style="fill:#263238;" d="M140.033,261.534l9.962-23.098c2.035-4.718,6.546-7.755,11.521-7.755H347.97
			c4.805,0,9.194,2.835,11.321,7.314l10.805,22.75L140.033,261.534z"/>
		<path style="opacity:0.5;fill:#FFFFFF;" d="M358.061,195.816c-4.457-10.326-14.385-16.913-25.272-16.761H177.34
			c-10.887-0.152-20.815,6.435-25.272,16.761l-26.447,61.276l123.663,1.351c0,0.075,0,0.126,0,0.126l5.781-0.063l5.781,0.063
			c0,0,0-0.052,0-0.126l123.663-1.351L358.061,195.816z"/>
		<path style="fill:#FFFFFF;" d="M115.536,292.484c0,0-11.837,5.96-14.55,13.361c-2.713,7.402-2.466,20.987,0,25.601
			c2.466,4.614,18.829,9.294,34.278,11.022c4.891,0.547,25.724,2.129,27.866,0c0.891-0.886,2.713-15.636-2.219-22.045
			C155.979,314.016,115.536,292.484,115.536,292.484z"/>
		<path style="fill:#407BFF;" d="M115.181,251.093c0,0-5.437-9.529-7.355-10.083c-1.919-0.554-20.764,0.766-24.306,1.176
			c-1.24,0.143-5.541,1.927-4.902,6.248c0.64,4.321,1.599,11.302,5.969,13.407c4.371,2.105,5.909,1.551,12.282,1.773
			c6.373,0.222,15.647-0.332,16.393-1.108s0.853-1.884,0.853-1.884l2.985,2.105l3.305-7.091L115.181,251.093z"/>
		<ellipse style="fill:#A24E3F;" cx="122.892" cy="384.661" rx="7.829" ry="8.138"/>
		<path style="fill:none;stroke:#263238;stroke-miterlimit:10;" d="M122.509,265.633c0,0-5.367,9.256-8.109,16.763
			c-1.516,4.151-0.034,8.798,3.612,11.294l0,0c0,0,35.087,19.688,43.304,26.318"/>
		<g>
			<path style="fill:#263238;" d="M153.099,258.723c0.164-0.92,3.507-17.719,5.127-25.855c0.506-2.542,2.553-4.352,4.932-4.361
				c11.183-0.042,42.274-0.145,53.004-0.028c2.147,0.023,3.876,1.933,3.876,4.28l2.786,25.964H153.099z"/>
			<path style="fill:#263238;" d="M202.898,224.066h-23.727c-4.897,0-8.867-3.97-8.867-8.867v-9.509c0-4.897,3.97-8.867,8.867-8.867
				h23.727c4.897,0,8.867,3.97,8.867,8.867v9.509C211.765,220.096,207.795,224.066,202.898,224.066z"/>
		</g>
		<g style="opacity:0.2;">
			<path style="fill:#FFFFFF;" d="M153.099,258.723c0.164-0.92,3.507-17.719,5.127-25.855c0.506-2.542,2.553-4.352,4.932-4.361
				c11.183-0.042,42.274-0.145,53.004-0.028c2.147,0.023,3.876,1.933,3.876,4.28l2.786,25.964H153.099z"/>
			<path style="fill:#FFFFFF;" d="M202.898,224.066h-23.727c-4.897,0-8.867-3.97-8.867-8.867v-9.509c0-4.897,3.97-8.867,8.867-8.867
				h23.727c4.897,0,8.867,3.97,8.867,8.867v9.509C211.765,220.096,207.795,224.066,202.898,224.066z"/>
		</g>
		<path style="opacity:0.3;" d="M117.853,263.335l-3.738-2.713c-0.124,0.564-0.361,1.591-1.288,2.098
			c-0.866,0.474-2.391,0.443-3.454,0.54l-1.407,3.085c0,0,2.849-1.078,4.923-2.062c2.074-0.984,1.902-2.141,1.902-2.141
			L117.853,263.335z"/>
		<path style="opacity:0.3;" d="M116.664,247.687l-1.541,3.247c1.138,1.408,4.845,5.637,4.845,5.637L116.664,247.687z"/>
		<path style="fill:#FFFFFF;" d="M393.714,292.484c0,0,12.304,5.96,15.124,13.361c2.82,7.402,2.563,20.987,0,25.601
			c-2.563,4.614-19.572,9.294-35.63,11.022c-5.084,0.547-26.739,2.129-28.966,0c-0.926-0.886-2.82-15.636,2.307-22.045
			C351.675,314.016,393.714,292.484,393.714,292.484z"/>
		<path style="fill:#407BFF;" d="M394.083,251.093c0,0,5.651-9.529,7.645-10.083c1.995-0.554,21.583,0.766,25.265,1.176
			c1.289,0.143,5.76,1.927,5.095,6.248c-0.665,4.321-1.662,11.302-6.205,13.407c-4.543,2.105-6.142,1.551-12.766,1.773
			c-6.624,0.222-16.264-0.332-17.04-1.108c-0.776-0.776-0.886-1.884-0.886-1.884l-3.103,2.105l-3.435-7.091L394.083,251.093z"/>
		<path style="opacity:0.3;" d="M257.723,327.93v-0.053c0,0-2.177,0.038-5.897,0.053c-3.719-0.015-5.897-0.053-5.897-0.053v0.053
			c-21.356-0.081-65.953-1.102-84.614-7.922c0,0,4.989,16.947,9.147,21.749c4.158,4.802,8.87,8.191,19.679,9.321
			c8.951,0.935,35.312,1.926,55.788,2.56v0c0.003,0,0.006,0,0.009,0c4.249,0.132,8.251-0.091,11.784,0.006
			c20.788-0.241,46.797-1.627,55.788-2.566c10.81-1.13,15.522-4.519,19.679-9.321s9.147-21.749,9.147-21.749
			C323.677,326.828,279.079,327.849,257.723,327.93z"/>
		
			<ellipse transform="matrix(0.7071 -0.7071 0.7071 0.7071 -158.9196 385.6561)" style="fill:#A24E3F;" cx="386.068" cy="384.661" rx="8.138" ry="8.138"/>
		<path style="fill:none;stroke:#263238;stroke-miterlimit:10;" d="M387.437,264.963c0,0,4.531,9.798,7.398,17.276
			c1.614,4.209,0.069,8.971-3.695,11.451l0,0c0,0-36.948,21.461-49.721,26.642"/>
		<g>
			<path style="fill:#263238;" d="M349.263,256.307c-0.173-0.949-3.688-18.282-5.391-26.677c-0.532-2.623-2.684-4.491-5.186-4.5
				c-11.758-0.044-44.45-0.15-55.732-0.029c-2.258,0.024-4.075,1.994-4.075,4.416l-2.93,26.79H349.263z"/>
			<path style="opacity:0.2;fill:#FFFFFF;" d="M349.263,256.307c-0.173-0.949-3.688-18.282-5.391-26.677
				c-0.532-2.623-2.684-4.491-5.186-4.5c-11.758-0.044-44.45-0.15-55.732-0.029c-2.258,0.024-4.075,1.994-4.075,4.416l-2.93,26.79
				H349.263z"/>
		</g>
		<path style="fill:#263238;" d="M298.7,222.375h27.813c4.897,0,8.867-3.97,8.867-8.867v-11.635c0-4.897-3.97-8.867-8.867-8.867
			H298.7c-4.897,0-8.867,3.97-8.867,8.867v11.635C289.833,218.405,293.803,222.375,298.7,222.375z"/>
		<path style="opacity:0.2;fill:#FFFFFF;" d="M298.7,222.375h27.813c4.897,0,8.867-3.97,8.867-8.867v-11.635
			c0-4.897-3.97-8.867-8.867-8.867H298.7c-4.897,0-8.867,3.97-8.867,8.867v11.635C289.833,218.405,293.803,222.375,298.7,222.375z"
			/>
		<path style="opacity:0.3;" d="M391.306,263.335l3.886-2.713c0.129,0.564,0.375,1.591,1.338,2.098
			c0.901,0.474,2.485,0.443,3.59,0.54l1.462,3.085c0,0-2.961-1.078-5.117-2.062c-2.156-0.984-1.977-2.141-1.977-2.141
			L391.306,263.335z"/>
		<path style="opacity:0.3;" d="M392.541,247.687l1.602,3.247c-1.183,1.408-5.037,5.637-5.037,5.637L392.541,247.687z"/>
		<path style="opacity:0.2;fill:#FFFFFF;" d="M256.801,270.052c-1.434,0-124.192-1.57-128.496-0.549
			c-2.789,0.662-5.465,7.941-7.003,12.983c-0.873,2.861,0.233,5.964,2.669,7.575c10.054,6.644,37.695,23.301,67.673,27.957
			c37.437,5.815,59.673,1.714,66.128-3.878C264.228,308.548,258.236,270.052,256.801,270.052z"/>
		<g>
			<path style="fill:#407BFF;" d="M291.104,227.843c0.218,0.327,4.687,19.951,4.687,19.951l-4.626,14.922h-19.335
				c0,0,11.109-26.997,13.223-30.485C287.138,228.787,291.104,227.843,291.104,227.843z"/>
			<path style="fill:#407BFF;" d="M334.109,227.843c-0.218,0.327-4.687,19.951-4.687,19.951l4.626,14.922h19.335
				c0,0-11.109-26.997-13.223-30.485C338.075,228.787,334.109,227.843,334.109,227.843z"/>
			<g>
				<path style="fill:#407BFF;" d="M334.645,227.843c-4.345-0.286-25.804-3.765-43.541,0l0.071,34.872h46.586L334.645,227.843z"/>
				<g>
					<path style="fill:#263238;" d="M324.899,195.787c0,0,9.413-5.301,3.826-10.986c-4.407-4.485-8.306-3.83-14.202-2.757
						c-14.448,2.631-13.607,8.651-13.607,8.651L324.899,195.787z"/>
					<g>
						<path style="fill:#B97964;" d="M306.5,226.102c0,0,0.772-5.542-2.472-15.148c0-0.01,0.502-0.26,0.502-0.271
							c-0.448-1.344-0.916-2.583-1.354-3.656c-0.01-0.031-0.01-0.042-0.01-0.042l13.666,7.646
							c-0.177,3.125,1.201,9.088,1.978,11.598c0,0,1.88,4.525-4.227,4.992C310.12,231.563,306.5,226.102,306.5,226.102z"/>
						<path style="opacity:0.2;" d="M317.251,218.996l-7.735-1.393c0.799,2.352,3.03,5.083,8.37,5.082
							C317.886,222.684,317.239,220.042,317.251,218.996z"/>
					</g>
					<g>
						<path style="fill:#B97964;" d="M302.782,200.525c1.265,8.398,1.809,13.16,6.461,17.078c6.998,5.892,16.861,1.22,18.134-7.412
							c1.146-7.77-1.115-20.198-9.687-22.748C309.245,184.93,301.517,192.127,302.782,200.525z"/>
						<path style="fill:#263238;" d="M300.814,190.466c10.311-9.931,20.799-4.36,24.815,1.084l-17.989,0.213
							c-0.786-0.014-1.232,0.805-1.061,2.302c0,0,6.237,11.184-2.361,17.461c-3.075-1.177-3.701-6.294-4.9-9.267
							C297.531,197.83,295.273,191.31,300.814,190.466z"/>
						<path style="fill:#B97964;" d="M300.069,207.858c0.867,2.115,2.633,3.621,4.382,4.305c2.63,1.029,3.326-1.809,2.853-4.448
							c-0.427-2.376-1.383-5.231-4.147-5.132C300.434,202.682,299.077,205.441,300.069,207.858z"/>
						<path style="fill:#263238;" d="M314.126,201.747c0.076,0.864,0.596,1.52,1.161,1.464c0.565-0.055,0.962-0.801,0.885-1.665
							c-0.076-0.864-0.596-1.52-1.161-1.464C314.446,200.137,314.05,200.883,314.126,201.747z"/>
						<path style="fill:#263238;" d="M322.856,201.463c0.076,0.864,0.596,1.52,1.161,1.464c0.565-0.055,0.962-0.801,0.885-1.665
							c-0.076-0.864-0.596-1.52-1.161-1.464C323.176,199.853,322.779,200.599,322.856,201.463z"/>
						<path style="fill:#A24E3F;" d="M320.773,201.079c0,0,3.115,4.052,4.146,5.723c-1.107,1.193-3.223,0.875-3.223,0.875
							L320.773,201.079z"/>
						<path style="fill:#263238;" d="M312.611,198.009c0.135,0.042,0.289,0.012,0.401-0.093c1.33-1.24,2.788-0.908,2.803-0.905
							c0.218,0.052,0.439-0.082,0.493-0.299c0.054-0.217-0.079-0.436-0.296-0.488c-0.077-0.019-1.904-0.435-3.554,1.104
							c-0.165,0.154-0.174,0.41-0.021,0.572C312.487,197.953,312.547,197.989,312.611,198.009z"/>
						
							<path style="fill:none;stroke:#263238;stroke-width:0.75;stroke-linecap:round;stroke-linejoin:round;stroke-miterlimit:10;" d="
							M319.108,210.68c-1.401,0.134-2.55-0.469-3.727-1.417"/>
					</g>
					
						<path style="opacity:0.2;fill:none;stroke:#000000;stroke-width:0.5;stroke-linecap:round;stroke-linejoin:round;stroke-miterlimit:10;" d="
						M301.791,205.353c0.296-0.534,0.973-0.781,1.577-0.688c0.603,0.093,1.131,0.472,1.534,0.93c0.484,0.55,0.822,1.228,0.968,1.946
						"/>
					<path style="fill:#263238;" d="M326.99,197.337c0.074-0.023,0.142-0.067,0.194-0.132c0.142-0.174,0.118-0.431-0.054-0.573
						c-1.727-1.425-3.507-0.861-3.59-0.846c-0.213,0.069-0.332,0.298-0.266,0.512c0.066,0.213,0.291,0.331,0.504,0.265
						c0.073-0.026,1.449-0.444,2.836,0.7C326.723,197.354,326.865,197.376,326.99,197.337z"/>
					<g style="opacity:0.2;">
						<path d="M314.704,207.311c-0.745,0.806-1.143,1.922-1.076,3.017c0,0-0.501-0.868-0.279-1.785
							C313.571,207.626,314.704,207.311,314.704,207.311z"/>
					</g>
				</g>
				<g>
					<polygon style="fill:#407BFF;" points="317.553,221.678 322.425,226.061 314.291,235.926 302.539,226.018 306.022,220.896 
						313.368,227.031 					"/>
					<polygon style="opacity:0.8;fill:#FFFFFF;" points="317.553,221.678 322.425,226.061 314.291,235.926 302.539,226.018 
						306.022,220.896 313.368,227.031 					"/>
				</g>
			</g>
			<g>
				<path style="fill:none;stroke:#263238;stroke-width:4;stroke-miterlimit:10;" d="M288.712,264.485
					c0-14.063,11.4-25.464,25.464-25.464s25.464,11.401,25.464,25.464"/>
				<path style="fill:#B97964;" d="M294.862,241.514c0,0-3.14-2.093-3.616,0.666c0,0-3.33,0-3.235,3.045
					c0,0-2.664,0.381-1.522,3.425c0,0-2.093,0.571-0.666,3.235c1.427,2.664,4.186,5.233,5.614,4.948
					c1.427-0.285,1.427-2.188,1.427-2.188s3.806,1.047,3.045-2.093c0,0,1.142,0.951,1.903-0.571c0.761-1.522,0-2.283,0-2.283
					s0.952,0.974,1.618-0.893C300.095,246.937,296.479,242.846,294.862,241.514z"/>
				<path style="fill:#B97964;" d="M330.277,239.782c0,0,3.14-2.093,3.616,0.666c0,0,3.33,0,3.235,3.045
					c0,0,2.664,0.381,1.522,3.425c0,0,2.093,0.571,0.666,3.235c-1.427,2.664-4.186,5.233-5.614,4.948
					c-1.427-0.285-1.427-2.188-1.427-2.188s-3.806,1.047-3.045-2.093c0,0-1.142,0.952-1.903-0.571c-0.761-1.522,0-2.284,0-2.284
					s-0.951,0.974-1.617-0.893C325.044,245.205,328.66,241.114,330.277,239.782z"/>
			</g>
		</g>
		<polygon style="fill:#263238;" points="384.559,256.687 249.459,257.612 125.907,256.573 121.716,266.249 249.459,266.495 
			388.749,266.249 		"/>
		<path style="fill:#263238;" d="M238.51,327.782l1.784,9.213c11.733,1.963,23.272,2.095,34.577,0l1.529-9.213
			C265.242,328.151,252.379,327.89,238.51,327.782z"/>
		<g>
			<path style="fill:#263238;" d="M265.481,188.764c-0.195-1.362-0.38-2.827-0.581-3.874c-0.16-0.838-0.898-1.439-1.751-1.439
				H238.87c-0.854,0-1.591,0.6-1.752,1.439c-0.2,1.047-0.386,2.512-0.581,3.875c-0.279,1.951,1.226,3.698,3.197,3.698h7.911h6.727
				h7.911C264.255,192.462,265.76,190.714,265.481,188.764z"/>
			<rect x="249.447" y="179.056" style="fill:#263238;" width="3.125" height="5.48"/>
		</g>
		<path style="opacity:0.3;fill:#FFFFFF;" d="M141.024,221.604c-0.02,0.046,99.047-42.55,99.047-42.55h27.399l-133.93,59.889
			L141.024,221.604z"/>
		<polygon style="opacity:0.3;fill:#FFFFFF;" points="129.681,247.687 293.861,179.053 332.79,179.053 148.074,256.906 
			125.846,256.571 		"/>
	</g>
</g>
<g id="Speech_Bubble">
	<g>
		<path style="fill:#407BFF;" d="M419.912,145.865c-6.259-12.516-21.479-17.587-33.995-11.328
			c-12.002,6.003-17.152,20.244-12.034,32.441l-3.465,7.209l7.805-0.252c7.414,8.44,19.842,11.186,30.362,5.925
			C421.1,173.601,426.172,158.381,419.912,145.865z"/>
		<path style="opacity:0.6;fill:#FFFFFF;" d="M419.912,145.865c-6.259-12.516-21.479-17.587-33.995-11.328
			c-12.002,6.003-17.152,20.244-12.034,32.441l-3.465,7.209l7.805-0.252c7.414,8.44,19.842,11.186,30.362,5.925
			C421.1,173.601,426.172,158.381,419.912,145.865z"/>
		<path style="fill:none;stroke:#407BFF;stroke-width:0.75;stroke-linecap:round;stroke-linejoin:round;stroke-miterlimit:10;" d="
			M380.223,133.175c-7.047,4.267-11.68,12.265-11.875,20.501"/>
		<path style="fill:none;stroke:#407BFF;stroke-width:0.75;stroke-linecap:round;stroke-linejoin:round;stroke-miterlimit:10;" d="
			M368.391,157.456c-0.123,1.251,0.016,2.526,0.405,3.721"/>
		<g>
			<g>
				<path style="fill:#407BFF;" d="M387.501,154.976c0.141-1.269,0.752-2.459,1.599-3.414c0.83-0.936,1.915-1.675,3.136-1.945
					c1.297-0.287,2.708-0.015,3.806,0.733c0.653,0.445,1.189,1.055,1.56,1.752c0.36-0.621,0.853-1.165,1.443-1.573
					c1.092-0.756,2.502-1.038,3.801-0.759c1.223,0.262,2.313,0.994,3.15,1.924c0.854,0.949,1.473,2.135,1.622,3.403
					c0.187,1.588-0.114,3.328-0.933,4.701c-0.865,1.45-2.267,2.624-3.71,3.501c-2.427,1.474-5.623,3.319-5.623,3.319
					s-2.714-2.015-5.151-3.472c-1.45-0.866-2.86-2.03-3.735-3.474C387.638,158.303,387.325,156.565,387.501,154.976z"/>
			</g>
		</g>
	</g>
</g>
</svg>
